<svg version="1.1" id="Layer_1" xmlns="http://www.w3.org/2000/svg" xmlns:xlink="http://www.w3.org/1999/xlink" x="0px" y="0px"
	 width="100%" viewBox="0 0 400 400" enable-background="new 0 0 400 400" xml:space="preserve">
<path fill="#FFFFFF" opacity="1.000000" stroke="none" 
	d="
M274.000000,401.000000 
	C182.695053,401.000000 91.890091,401.000000 1.042571,401.000000 
	C1.042571,267.736725 1.042571,134.473419 1.042571,1.105061 
	C134.221558,1.105061 267.443207,1.105061 400.832458,1.105061 
	C400.832458,134.333160 400.832458,267.666565 400.832458,401.000000 
	C358.806824,401.000000 316.653412,401.000000 274.000000,401.000000 
M48.730484,289.799652 
	C48.867577,290.114380 49.099136,290.325500 49.526302,290.465912 
	C49.526302,290.465912 49.539619,290.571442 49.817131,291.218201 
	C51.530613,291.952454 53.244099,292.686737 55.699249,293.819519 
	C56.697704,293.849884 57.696163,293.906769 58.694618,293.906830 
	C151.297668,293.911499 243.900711,293.912537 336.503754,293.904541 
	C337.664581,293.904449 338.825409,293.785522 340.733063,293.898132 
	C341.493347,293.839264 342.253601,293.780365 343.666107,293.883636 
	C344.106323,293.824280 344.546539,293.764954 345.716187,293.862610 
	C348.292023,292.295258 350.867859,290.727905 353.972412,288.709015 
	C354.254089,287.137695 354.535767,285.566406 354.990997,283.285919 
	C354.998383,227.231934 355.007141,171.177948 355.003204,115.123955 
	C355.003113,113.969818 354.855408,112.815689 354.949341,110.890892 
	C353.325165,108.554131 351.700989,106.217369 350.034637,103.975609 
	C350.034637,103.975609 350.122253,103.919693 349.761810,103.179619 
	C347.162537,102.791832 344.563446,102.066666 341.963928,102.065018 
	C248.805267,102.005844 155.646576,102.013084 62.487873,102.022018 
	C60.660637,102.022194 58.833412,102.152832 56.277145,102.027374 
	C53.835995,103.312210 51.394840,104.597046 48.328632,106.311859 
	C47.894203,108.541702 47.459778,110.771553 46.828514,113.920738 
	C46.818901,169.369415 46.805683,224.818085 46.819279,280.266754 
	C46.819637,281.738739 47.111164,283.210663 47.309273,284.710815 
	C47.309273,284.710815 47.243343,284.732971 46.986256,285.284363 
	C47.276417,286.206970 47.566582,287.129608 47.879578,288.615112 
	C48.142624,288.862915 48.405670,289.110718 48.875511,289.075012 
	C48.875511,289.075012 48.632393,289.328064 48.730484,289.799652 
z"/>
<path fill="#2C304A" opacity="1.000000" stroke="none" 
	d="
M339.986237,293.722046 
	C338.825409,293.785522 337.664581,293.904449 336.503754,293.904541 
	C243.900711,293.912537 151.297668,293.911499 58.694618,293.906830 
	C57.696163,293.906769 56.697704,293.849884 55.302040,293.219360 
	C53.116425,291.936646 51.328018,291.254059 49.539619,290.571442 
	C49.539619,290.571442 49.526302,290.465912 49.538162,290.165466 
	C49.244141,289.686066 48.938267,289.507050 48.632393,289.328064 
	C48.632393,289.328064 48.875511,289.075012 48.771702,288.932068 
	C48.397511,288.543488 48.127125,288.297852 47.856743,288.052216 
	C47.566582,287.129608 47.276417,286.206970 47.369049,285.014191 
	C47.590202,284.723541 47.428558,284.703064 47.266914,284.682617 
	C47.111164,283.210663 46.819637,281.738739 46.819279,280.266754 
	C46.805683,224.818085 46.818901,169.369415 47.308990,113.375626 
	C48.177544,110.514305 48.565620,108.198097 48.953690,105.881882 
	C51.394840,104.597046 53.835995,103.312210 56.755932,102.502197 
	C59.105167,103.318268 60.975285,103.955429 62.846115,103.957520 
	C111.475143,104.011978 160.104248,104.010887 208.733337,103.997337 
	C255.862976,103.984207 302.992615,103.946571 350.122253,103.919693 
	C350.122253,103.919693 350.034637,103.975609 350.035706,104.315186 
	C351.025360,107.103249 352.013885,109.551750 353.002075,112.468887 
	C353.001129,168.122055 352.983093,223.306595 353.076477,278.490967 
	C353.079590,280.326630 354.211609,282.160431 354.817413,283.995087 
	C354.535767,285.566406 354.254089,287.137695 353.328308,288.916351 
	C349.819641,290.149078 345.296722,288.388580 344.986755,293.705627 
	C344.546539,293.764954 344.106323,293.824280 343.327087,293.458038 
	C342.456116,292.407288 341.924133,291.782166 341.392120,291.157043 
	C340.923492,292.012054 340.454865,292.867035 339.986237,293.722046 
M315.356903,244.658157 
	C315.474487,244.151733 315.592102,243.645325 316.256287,242.801361 
	C315.761230,242.224869 315.266174,241.648376 314.308746,240.719559 
	C314.165466,240.163879 314.022186,239.608200 314.399323,238.695175 
	C313.638641,237.470688 312.877991,236.246216 311.647156,234.476410 
	C300.023895,207.795212 288.414368,181.108002 276.771729,154.435272 
	C270.728333,140.590149 270.701843,140.601715 255.685806,141.050674 
	C255.519409,141.055634 255.310211,140.995148 255.193039,141.073273 
	C253.726486,142.050888 251.522751,142.721313 250.926605,144.088898 
	C236.838501,176.407639 222.909668,208.795914 209.039398,241.209015 
	C208.575500,242.293091 209.024551,243.767838 209.635529,245.638947 
	C216.605911,245.754578 223.576233,245.916153 230.546722,245.922226 
	C231.334106,245.922913 232.122253,245.046692 232.955917,243.867569 
	C235.248444,237.978851 237.383194,232.020035 239.945679,226.251221 
	C240.577652,224.828506 242.581345,223.110519 243.988571,223.079575 
	C255.473877,222.826889 266.968414,222.868439 278.456573,223.048538 
	C279.747467,223.068771 281.691833,224.211853 282.181549,225.335938 
	C284.697479,231.111160 286.836884,237.050415 288.607269,243.309921 
	C289.186188,243.839600 289.765106,244.369263 290.699432,244.861649 
	C290.699432,244.861649 291.012299,245.034317 291.604523,245.618301 
	C299.390991,245.416061 307.177429,245.213837 315.356903,244.658157 
M104.778824,155.289703 
	C84.732727,176.632706 88.208916,212.111771 103.079185,228.875870 
	C117.254730,244.856735 135.561691,248.397415 155.763092,246.719955 
	C158.655609,246.479767 161.976761,247.138901 164.572357,248.436401 
	C170.759552,251.529312 176.631531,255.252869 182.933823,258.896912 
	C186.176071,253.242142 189.262054,247.859924 192.400681,242.385910 
	C188.850906,240.252670 185.783356,238.409225 182.413879,236.384323 
	C183.443024,235.423248 184.143280,234.745621 184.868317,234.095642 
	C204.688187,216.327820 208.286530,181.787689 192.562042,160.216339 
	C173.324921,133.826263 129.427216,131.080460 104.778824,155.289703 
M317.515045,245.413116 
	C317.515045,245.413116 317.580872,245.523148 317.515045,245.413116 
z"/>
<path fill="#2A2C3F" opacity="1.000000" stroke="none" 
	d="
M349.942017,103.549660 
	C302.992615,103.946571 255.862976,103.984207 208.733337,103.997337 
	C160.104248,104.010887 111.475143,104.011978 62.846115,103.957520 
	C60.975285,103.955429 59.105167,103.318268 57.120453,102.599823 
	C58.833412,102.152832 60.660637,102.022194 62.487873,102.022018 
	C155.646576,102.013084 248.805267,102.005844 341.963928,102.065018 
	C344.563446,102.066666 347.162537,102.791832 349.942017,103.549660 
z"/>
<path fill="#282B3E" opacity="1.000000" stroke="none" 
	d="
M354.904205,283.640503 
	C354.211609,282.160431 353.079590,280.326630 353.076477,278.490967 
	C352.983093,223.306595 353.001129,168.122055 353.448364,112.398804 
	C354.188904,111.793892 354.482758,111.727722 354.776581,111.661560 
	C354.855408,112.815689 355.003113,113.969818 355.003204,115.123955 
	C355.007141,171.177948 354.998383,227.231934 354.904205,283.640503 
z"/>
<path fill="#343649" opacity="1.000000" stroke="none" 
	d="
M345.351471,293.784119 
	C345.296722,288.388580 349.819641,290.149078 353.063965,289.142120 
	C350.867859,290.727905 348.292023,292.295258 345.351471,293.784119 
z"/>
<path fill="#2A2C3F" opacity="1.000000" stroke="none" 
	d="
M354.862976,111.276230 
	C354.482758,111.727722 354.188904,111.793892 353.448730,111.930161 
	C352.013885,109.551750 351.025360,107.103249 350.056824,104.267685 
	C351.700989,106.217369 353.325165,108.554131 354.862976,111.276230 
z"/>
<path fill="#343649" opacity="1.000000" stroke="none" 
	d="
M48.641163,106.096870 
	C48.565620,108.198097 48.177544,110.514305 47.407410,112.915955 
	C47.459778,110.771553 47.894203,108.541702 48.641163,106.096870 
z"/>
<path fill="#343649" opacity="1.000000" stroke="none" 
	d="
M49.678375,290.894836 
	C51.328018,291.254059 53.116425,291.936646 54.931206,293.020142 
	C53.244099,292.686737 51.530613,291.952454 49.678375,290.894836 
z"/>
<path fill="#343649" opacity="1.000000" stroke="none" 
	d="
M340.359650,293.810089 
	C340.454865,292.867035 340.923492,292.012054 341.392120,291.157043 
	C341.924133,291.782166 342.456116,292.407288 343.000977,293.376953 
	C342.253601,293.780365 341.493347,293.839264 340.359650,293.810089 
z"/>
<path fill="#343649" opacity="1.000000" stroke="none" 
	d="
M47.288094,284.696716 
	C47.428558,284.703064 47.590202,284.723541 47.497597,284.738495 
	C47.243343,284.732971 47.309273,284.710815 47.288094,284.696716 
z"/>
<path fill="#343649" opacity="1.000000" stroke="none" 
	d="
M47.868156,288.333679 
	C48.127125,288.297852 48.397511,288.543488 48.668304,289.073822 
	C48.405670,289.110718 48.142624,288.862915 47.868156,288.333679 
z"/>
<path fill="#343649" opacity="1.000000" stroke="none" 
	d="
M48.681438,289.563843 
	C48.938267,289.507050 49.244141,289.686066 49.487595,290.148987 
	C49.099136,290.325500 48.867577,290.114380 48.681438,289.563843 
z"/>
<path fill="#FCFCFC" opacity="1.000000" stroke="none" 
	d="
M105.013748,155.022293 
	C129.427216,131.080460 173.324921,133.826263 192.562042,160.216339 
	C208.286530,181.787689 204.688187,216.327820 184.868317,234.095642 
	C184.143280,234.745621 183.443024,235.423248 182.413879,236.384323 
	C185.783356,238.409225 188.850906,240.252670 192.400681,242.385910 
	C189.262054,247.859924 186.176071,253.242142 182.933823,258.896912 
	C176.631531,255.252869 170.759552,251.529312 164.572357,248.436401 
	C161.976761,247.138901 158.655609,246.479767 155.763092,246.719955 
	C135.561691,248.397415 117.254730,244.856735 103.079185,228.875870 
	C88.208916,212.111771 84.732727,176.632706 105.013748,155.022293 
M171.153961,215.623505 
	C183.244125,200.401886 181.127838,176.482315 166.762314,165.986618 
	C155.967072,158.099426 139.678619,157.540573 128.710388,164.681061 
	C117.616005,171.903641 112.246666,186.590073 115.426208,201.263062 
	C117.956970,212.942047 124.748352,221.140625 136.285187,224.461365 
	C149.124146,228.156906 160.944717,226.050262 171.153961,215.623505 
z"/>
<path fill="#76BEE7" opacity="1.000000" stroke="none" 
	d="
M313.878876,239.052521 
	C314.022186,239.608200 314.165466,240.163879 314.582306,241.187256 
	C315.140472,242.149597 315.425110,242.644257 315.709717,243.138901 
	C315.592102,243.645325 315.474487,244.151733 314.698853,244.776993 
	C306.364624,244.941986 298.688446,244.988159 291.012299,245.034317 
	C291.012299,245.034317 290.699432,244.861649 290.408478,244.606110 
	C289.780945,243.877853 289.444366,243.405121 289.107788,242.932388 
	C286.836884,237.050415 284.697479,231.111160 282.181549,225.335938 
	C281.691833,224.211853 279.747467,223.068771 278.456573,223.048538 
	C266.968414,222.868439 255.473877,222.826889 243.988571,223.079575 
	C242.581345,223.110519 240.577652,224.828506 239.945679,226.251221 
	C237.383194,232.020035 235.248444,237.978851 232.476196,244.304794 
	C224.346985,244.848175 216.697510,244.954330 209.048035,245.060486 
	C209.024551,243.767838 208.575500,242.293091 209.039398,241.209015 
	C222.909668,208.795914 236.838501,176.407639 250.926605,144.088898 
	C251.522751,142.721313 253.726486,142.050888 255.193039,141.073273 
	C255.310211,140.995148 255.519409,141.055634 255.685806,141.050674 
	C270.701843,140.601715 270.728333,140.590149 276.771729,154.435272 
	C288.414368,181.108002 300.023895,207.795212 311.899719,235.070694 
	C312.727814,236.794159 313.303345,237.923340 313.878876,239.052521 
M256.518829,181.388672 
	C256.398468,182.005173 256.278076,182.621674 256.095428,183.630692 
	C256.095428,183.630692 255.907745,183.981003 255.185883,184.108231 
	C254.250732,186.909775 253.315582,189.711304 252.437988,192.802261 
	C252.437988,192.802261 252.286667,193.055603 251.646332,193.362930 
	C250.730850,196.230377 249.815353,199.097839 249.037827,202.645157 
	C249.333710,202.991562 249.629608,203.337952 250.326065,204.296036 
	C256.088379,204.514877 261.849792,204.831833 267.613617,204.885101 
	C269.096497,204.898819 270.587097,204.082306 272.614075,203.106750 
	C269.010651,193.043289 265.407227,182.979843 261.312378,171.543915 
	C259.419800,175.736023 258.230774,178.369736 256.518829,181.388672 
z"/>
<path fill="#152D4E" opacity="1.000000" stroke="none" 
	d="
M291.308411,245.326309 
	C298.688446,244.988159 306.364624,244.941986 314.502319,244.953720 
	C307.177429,245.213837 299.390991,245.416061 291.308411,245.326309 
z"/>
<path fill="#142A4B" opacity="1.000000" stroke="none" 
	d="
M209.341782,245.349716 
	C216.697510,244.954330 224.346985,244.848175 232.453247,244.659561 
	C232.122253,245.046692 231.334106,245.922913 230.546722,245.922226 
	C223.576233,245.916153 216.605911,245.754578 209.341782,245.349716 
z"/>
<path fill="#152D4E" opacity="1.000000" stroke="none" 
	d="
M314.139099,238.873840 
	C313.303345,237.923340 312.727814,236.794159 312.134766,235.343353 
	C312.877991,236.246216 313.638641,237.470688 314.139099,238.873840 
z"/>
<path fill="#152D4E" opacity="1.000000" stroke="none" 
	d="
M315.983002,242.970123 
	C315.425110,242.644257 315.140472,242.149597 314.813477,241.363419 
	C315.266174,241.648376 315.761230,242.224869 315.983002,242.970123 
z"/>
<path fill="#152D4E" opacity="1.000000" stroke="none" 
	d="
M288.857544,243.121155 
	C289.444366,243.405121 289.780945,243.877853 290.230774,244.624756 
	C289.765106,244.369263 289.186188,243.839600 288.857544,243.121155 
z"/>
<path fill="#152D4E" opacity="1.000000" stroke="none" 
	d="
M317.547974,245.468140 
	C317.580872,245.523148 317.515045,245.413116 317.547974,245.468140 
z"/>
<path fill="#2C304A" opacity="1.000000" stroke="none" 
	d="
M170.931488,215.903839 
	C160.944717,226.050262 149.124146,228.156906 136.285187,224.461365 
	C124.748352,221.140625 117.956970,212.942047 115.426208,201.263062 
	C112.246666,186.590073 117.616005,171.903641 128.710388,164.681061 
	C139.678619,157.540573 155.967072,158.099426 166.762314,165.986618 
	C181.127838,176.482315 183.244125,200.401886 170.931488,215.903839 
z"/>
<path fill="#28334F" opacity="1.000000" stroke="none" 
	d="
M249.925491,203.684357 
	C249.629608,203.337952 249.333710,202.991562 249.206146,202.044144 
	C250.345215,198.647293 251.315933,195.851440 252.286667,193.055603 
	C252.286667,193.055603 252.437988,192.802261 252.659027,192.401764 
	C253.889297,189.327850 254.898514,186.654419 255.907745,183.981003 
	C255.907745,183.981003 256.095428,183.630692 256.360901,183.223068 
	C256.764801,182.211456 256.903290,181.607452 257.041748,181.003464 
	C258.230774,178.369736 259.419800,175.736023 261.312378,171.543915 
	C265.407227,182.979843 269.010651,193.043289 271.893127,203.220673 
	C264.089966,203.451187 257.007721,203.567780 249.925491,203.684357 
z"/>
<path fill="#71A2C3" opacity="1.000000" stroke="none" 
	d="
M250.125778,203.990204 
	C257.007721,203.567780 264.089966,203.451187 271.623169,203.490906 
	C270.587097,204.082306 269.096497,204.898819 267.613617,204.885101 
	C261.849792,204.831833 256.088379,204.514877 250.125778,203.990204 
z"/>
<path fill="#71A2C3" opacity="1.000000" stroke="none" 
	d="
M255.546814,184.044617 
	C254.898514,186.654419 253.889297,189.327850 252.630249,192.257050 
	C253.315582,189.711304 254.250732,186.909775 255.546814,184.044617 
z"/>
<path fill="#71A2C3" opacity="1.000000" stroke="none" 
	d="
M251.966492,193.209259 
	C251.315933,195.851440 250.345215,198.647293 249.137177,201.704208 
	C249.815353,199.097839 250.730850,196.230377 251.966492,193.209259 
z"/>
<path fill="#71A2C3" opacity="1.000000" stroke="none" 
	d="
M256.780273,181.196075 
	C256.903290,181.607452 256.764801,182.211456 256.392029,183.026810 
	C256.278076,182.621674 256.398468,182.005173 256.780273,181.196075 
z"/>
</svg>